<svg xmlns="http://www.w3.org/2000/svg" viewBox="0 0 760 240" role="img" aria-labelledby="title desc">
  <title id="title">Ágnes Scheuber Malerei Logo</title>
  <desc id="desc">Logo mit kleiner künstlerisch gemalter Fliederblüte und dem Schriftzug Ágnes Scheuber Malerei.</desc>
  <defs>
    <linearGradient id="leaf" x1="0%" y1="0%" x2="100%" y2="100%">
      <stop offset="0%" stop-color="#a8c983"/>
      <stop offset="100%" stop-color="#6c8b57"/>
    </linearGradient>
    <filter id="softShadow" x="-20%" y="-20%" width="140%" height="140%">
      <feDropShadow dx="0" dy="8" stdDeviation="10" flood-color="#6a5982" flood-opacity="0.14"/>
    </filter>
  </defs>
  <g transform="translate(78 36)" filter="url(#softShadow)">
    <g opacity="0.98">
      <g fill="#c9a0ef">
        <path d="M40 28 C33 18 19 20 16 32 C13 43 23 49 32 46 C40 44 45 36 40 28Z"/>
        <path d="M58 20 C51 11 38 13 34 24 C31 35 41 42 49 40 C57 38 62 29 58 20Z"/>
        <path d="M77 30 C70 21 56 23 53 35 C50 46 60 52 68 49 C77 47 81 38 77 30Z"/>
        <path d="M50 45 C42 35 28 38 25 49 C22 60 33 67 42 64 C50 62 55 53 50 45Z"/>
        <path d="M69 50 C61 40 47 42 44 54 C41 65 52 72 61 69 C69 67 74 58 69 50Z"/>
        <path d="M87 46 C80 37 66 39 63 51 C60 62 71 68 79 66 C87 64 92 55 87 46Z"/>
        <path d="M58 68 C50 58 36 60 33 72 C30 83 40 90 50 87 C58 85 63 77 58 68Z"/>
        <path d="M76 66 C69 57 56 59 52 70 C49 81 59 88 68 85 C76 83 80 74 76 66Z"/>
      </g>
      <g fill="#a979d2" opacity="0.9">
        <path d="M48 33 C44 28 36 29 34 36 C32 43 39 47 44 45 C49 44 52 39 48 33Z"/>
        <path d="M66 28 C61 22 52 23 49 30 C47 37 53 42 59 40 C64 39 68 34 66 28Z"/>
        <path d="M60 52 C55 46 46 47 43 54 C41 61 47 66 53 64 C58 63 62 58 60 52Z"/>
        <path d="M77 52 C72 46 63 47 60 54 C58 61 64 66 70 64 C75 63 79 58 77 52Z"/>
        <path d="M67 72 C62 66 53 67 50 74 C48 81 54 86 60 84 C66 83 69 78 67 72Z"/>
      </g>
      <g fill="#f2e8ff" opacity="0.7">
        <circle cx="31" cy="34" r="3.2"/>
        <circle cx="50" cy="25" r="3.1"/>
        <circle cx="69" cy="35" r="3.1"/>
        <circle cx="41" cy="52" r="3.1"/>
        <circle cx="59" cy="57" r="3.1"/>
        <circle cx="78" cy="52" r="3.1"/>
        <circle cx="49" cy="76" r="3.1"/>
      </g>
    </g>
    <path d="M59 85 C58 105 53 127 45 154" fill="none" stroke="#76995f" stroke-width="4.5" stroke-linecap="round"/>
    <path d="M47 108 C31 100 20 104 11 118 C24 119 36 118 45 112" fill="url(#leaf)"/>
    <path d="M45 126 C58 118 72 121 84 135 C68 139 54 137 45 130" fill="url(#leaf)"/>
  </g>
  <g transform="translate(220 52)">
    <text x="0" y="52" font-family="Georgia, 'Times New Roman', serif" font-size="64" fill="#5b7e52" letter-spacing="1.15">Ágnes Scheuber</text>
    <path d="M2 82 C108 68 206 68 322 82" fill="none" stroke="#f2a84e" stroke-width="3.3" stroke-linecap="round"/>
    <text x="4" y="124" font-family="Segoe UI, Tahoma, sans-serif" font-size="31" fill="#9b70d2" letter-spacing="5">MALEREI</text>
  </g>
</svg>
